<?xml version="1.0" encoding="UTF-8"?>
<svg width="368px" height="368px" viewBox="0 0 368 368" version="1.1" xmlns="http://www.w3.org/2000/svg" xmlns:xlink="http://www.w3.org/1999/xlink">
    <defs>
        <linearGradient x1="130.032269%" y1="133.046875%" x2="-16.8002717%" y2="0%" id="linearGradient-1">
            <stop stop-color="#1F1A37" offset="0%"></stop>
            <stop stop-color="#3E366A" offset="100%"></stop>
        </linearGradient>
        <linearGradient x1="76.542575%" y1="-15.5777928%" x2="76.5425742%" y2="148.978728%" id="linearGradient-2">
            <stop stop-color="#FFFFFF" stop-opacity="0" offset="0%"></stop>
            <stop stop-color="#FFFFFF" offset="100%"></stop>
        </linearGradient>
        <linearGradient x1="31.2343089%" y1="-9.22874415%" x2="81.1261232%" y2="104.898352%" id="linearGradient-3">
            <stop stop-color="#B84592" offset="0%"></stop>
            <stop stop-color="#FF4F81" offset="100%"></stop>
        </linearGradient>
        <circle id="VBNIUYT" cx="40" cy="40" r="40"></circle>
        <mask id="mask-5" maskContentUnits="userSpaceOnUse" maskUnits="objectBoundingBox" x="0" y="0" width="80" height="80" fill="white">
            <use xlink:href="#VBNIUYT"></use>
        </mask>
    </defs>
    <g id="ZSCGYHJK" stroke="none" stroke-width="1" fill="none" fill-rule="evenodd">
        <g id="nojs_illustration">
            <circle id="OIUYTGHJKL" fill="#F7F7FF" cx="184" cy="184" r="184"></circle>
            <g id="XFGYUIO" transform="translate(72.000000, 103.000000)">
                <rect id="ZERTGDXCFTYUI" fill="url(#linearGradient-1)" x="0" y="0" width="224" height="136" rx="4"></rect>
                <polygon id="ZERTGDXCFTYUI" fill="url(#linearGradient-2)" style="mix-blend-mode: overlay;" opacity="0.38708107" points="120 0 224 0 224 136 71 136"></polygon>
                <circle id="Oval-3" fill="#FFFFFF" style="mix-blend-mode: overlay;" opacity="0.38708107" cx="12" cy="12" r="4"></circle>
                <circle id="Oval-3" fill="#FFFFFF" style="mix-blend-mode: overlay;" opacity="0.38708107" cx="26" cy="12" r="4"></circle>
                <circle id="Oval-3" fill="#FFFFFF" style="mix-blend-mode: overlay;" opacity="0.38708107" cx="40" cy="12" r="4"></circle>
            </g>
            <g id="XSDEFR" transform="translate(144.000000, 131.000000)">
                <path d="M33.6958145,49.9671 C32.3594063,51.2923715 30.5330091,51.9549973 28.2165682,51.9549973 C25.3210171,51.9549973 22.9155184,50.7856577 21,48.4469433 L23.1048324,45.1059395 C23.8844039,45.9300579 24.7140782,46.5704105 25.5938802,47.0270167 C26.4736823,47.4836228 27.3033566,47.7119225 28.0829281,47.7119225 C29.0629608,47.7119225 29.8258157,47.4168034 30.3715157,46.8265565 C30.9172157,46.2363095 31.1900616,45.3954986 31.1900616,44.3040986 L31.1900616,32.3433049 L23.1382424,32.3433049 L23.1382424,28.3675104 L35.7004168,28.3675104 L35.7004168,44.4043287 C35.7004168,46.78759 35.0322227,48.6418286 33.6958145,49.9671 Z M52.4054358,32.6774053 C51.1469847,32.2764829 50.0388962,32.0760246 49.081137,32.0760246 C48.0120104,32.0760246 47.1656313,32.2764829 46.5419741,32.6774053 C45.9183169,33.0783278 45.606493,33.6351562 45.606493,34.3479072 C45.606493,34.9938379 45.8236561,35.5339614 46.2579888,35.9682941 C46.6923214,36.4026267 47.2380133,36.7589969 47.8950806,37.0374153 C48.552148,37.3158337 49.4486417,37.6220893 50.5845887,37.9561913 C52.1660051,38.4239342 53.4634152,38.8916701 54.4768581,39.3594129 C55.490301,39.8271558 56.353385,40.517623 57.0661361,41.4308353 C57.7788871,42.3440476 58.1352573,43.5467969 58.1352573,45.0391194 C58.1352573,46.4646215 57.7510457,47.7063488 56.982611,48.7643387 C56.2141763,49.8223285 55.1562023,50.6297297 53.8086574,51.1865664 C52.4611124,51.7434032 50.9186978,52.0218174 49.1813671,52.0218174 C47.3549426,52.0218174 45.5730917,51.682152 43.835761,51.0028112 C42.0984303,50.3234704 40.5838571,49.4158401 39.2919958,48.2798931 L41.162958,44.4711488 C42.3434519,45.5625488 43.6687035,46.4200645 45.1387525,47.0437217 C46.6088015,47.6673789 47.9785994,47.9792028 49.2481872,47.9792028 C50.4955015,47.9792028 51.4755195,47.7397666 52.1882705,47.2608869 C52.9010216,46.7820073 53.2573917,46.1305181 53.2573917,45.3063997 C53.2573917,44.6381956 53.0402287,44.0869355 52.605896,43.6526028 C52.1715633,43.2182702 51.6203032,42.8674683 50.9520991,42.6001866 C50.283895,42.332905 49.3706964,42.0322177 48.212476,41.6981156 C46.6310596,41.2303727 45.3392177,40.7737734 44.3369116,40.328304 C43.3346054,39.8828346 42.4770897,39.2090723 41.7643386,38.3069967 C41.0515876,37.4049212 40.6952174,36.2188767 40.6952174,34.7488277 C40.6952174,33.390146 41.0571559,32.2041015 41.7810437,31.1906586 C42.5049314,30.1772157 43.5294957,29.3920877 44.8547672,28.835251 C46.1800386,28.2784142 47.7113167,28 49.4486474,28 C50.9632434,28 52.4611118,28.2227314 53.9422975,28.6682008 C55.4234833,29.1136702 56.7431666,29.7150448 57.901387,30.4723428 L56.097245,34.3813173 C54.8944776,33.6462928 53.6638868,33.0783278 52.4054358,32.6774053 Z" id="JS" fill="#FFFFFF"></path>
                <g id="EDZGST">
                    <rect id="ZERTGDXCFTYUI-3" fill="url(#linearGradient-3)" transform="translate(40.000000, 40.000000) rotate(-315.000000) translate(-40.000000, -40.000000) " x="1" y="38" width="78" height="4" rx="2"></rect>
                    <use id="Oval-2" stroke="url(#linearGradient-3)" mask="url(#mask-5)" stroke-width="8" xlink:href="#VBNIUYT"></use>
                </g>
            </g>
            <ellipse id="Oval-3-Copy-2" fill-opacity="0.1" fill="#182359" cx="184.5" cy="271" rx="87.5" ry="8"></ellipse>
        </g>
    </g>
</svg>