<?xml version="1.0" encoding="UTF-8"?>
<svg width="368px" height="368px" viewBox="0 0 368 368" version="1.1" xmlns="http://www.w3.org/2000/svg" xmlns:xlink="http://www.w3.org/1999/xlink">
    <!-- Generator: Sketch 42 (36781) - http://www.bohemiancoding.com/sketch -->
    <title>nojs_illustration</title>
    <desc>Created with Sketch.</desc>
    <defs>
        <linearGradient x1="130.032269%" y1="133.046875%" x2="-16.8002717%" y2="0%" id="linearGradient-1">
            <stop stop-color="#1F1A37" offset="0%"></stop>
            <stop stop-color="#3E366A" offset="100%"></stop>
        </linearGradient>
        <linearGradient x1="76.542575%" y1="-15.5777928%" x2="76.5425742%" y2="148.978728%" id="linearGradient-2">
            <stop stop-color="#FFFFFF" stop-opacity="0" offset="0%"></stop>
            <stop stop-color="#FFFFFF" offset="100%"></stop>
        </linearGradient>
        <linearGradient x1="31.2343089%" y1="-9.22874415%" x2="81.1261232%" y2="104.898352%" id="linearGradient-3">
            <stop stop-color="#B84592" offset="0%"></stop>
            <stop stop-color="#FF4F81" offset="100%"></stop>
        </linearGradient>
        <circle id="path-4" cx="40" cy="40" r="40"></circle>
        <mask id="mask-5" maskContentUnits="userSpaceOnUse" maskUnits="objectBoundingBox" x="0" y="0" width="80" height="80" fill="white">
            <use xlink:href="#path-4"></use>
        </mask>
    </defs>
    <g id="Page-1" stroke="none" stroke-width="1" fill="none" fill-rule="evenodd">
        <g id="nojs_illustration">
            <g>
                <circle id="bg_02" fill="#F7F7FF" cx="184" cy="184" r="184"></circle>
                <g id="Group-3" transform="translate(72.000000, 103.000000)">
                    <rect id="screen_bg_02" fill="url(#linearGradient-1)" x="0" y="0" width="224" height="136" rx="4"></rect>
                    <polygon id="shine_02" fill="url(#linearGradient-2)" style="mix-blend-mode: overlay;" opacity="0.38708107" points="120 0 224 0 224 136 71 136"></polygon>
                    <path d="M12,16 C9.790861,16 8,14.209139 8,12 C8,9.790861 9.790861,8 12,8 C14.209139,8 16,9.790861 16,12 C16,14.209139 14.209139,16 12,16 Z M26,16 C23.790861,16 22,14.209139 22,12 C22,9.790861 23.790861,8 26,8 C28.209139,8 30,9.790861 30,12 C30,14.209139 28.209139,16 26,16 Z M40,16 C37.790861,16 36,14.209139 36,12 C36,9.790861 37.790861,8 40,8 C42.209139,8 44,9.790861 44,12 C44,14.209139 42.209139,16 40,16 Z" id="btns_02" fill="#FFFFFF" style="mix-blend-mode: overlay;" opacity="0.38708107"></path>
                </g>
                <path d="M177.695814,180.9671 C176.359406,182.292372 174.533009,182.954997 172.216568,182.954997 C169.321017,182.954997 166.915518,181.785658 165,179.446943 L167.104832,176.105939 C167.884404,176.930058 168.714078,177.570411 169.59388,178.027017 C170.473682,178.483623 171.303357,178.711922 172.082928,178.711922 C173.062961,178.711922 173.825816,178.416803 174.371516,177.826556 C174.917216,177.236309 175.190062,176.395499 175.190062,175.304099 L175.190062,163.343305 L167.138242,163.343305 L167.138242,159.36751 L179.700417,159.36751 L179.700417,175.404329 C179.700417,177.78759 179.032223,179.641829 177.695814,180.9671 Z M196.405436,163.677405 C195.146985,163.276483 194.038896,163.076025 193.081137,163.076025 C192.01201,163.076025 191.165631,163.276483 190.541974,163.677405 C189.918317,164.078328 189.606493,164.635156 189.606493,165.347907 C189.606493,165.993838 189.823656,166.533961 190.257989,166.968294 C190.692321,167.402627 191.238013,167.758997 191.895081,168.037415 C192.552148,168.315834 193.448642,168.622089 194.584589,168.956191 C196.166005,169.423934 197.463415,169.89167 198.476858,170.359413 C199.490301,170.827156 200.353385,171.517623 201.066136,172.430835 C201.778887,173.344048 202.135257,174.546797 202.135257,176.039119 C202.135257,177.464622 201.751046,178.706349 200.982611,179.764339 C200.214176,180.822328 199.156202,181.62973 197.808657,182.186566 C196.461112,182.743403 194.918698,183.021817 193.181367,183.021817 C191.354943,183.021817 189.573092,182.682152 187.835761,182.002811 C186.09843,181.32347 184.583857,180.41584 183.291996,179.279893 L185.162958,175.471149 C186.343452,176.562549 187.668703,177.420065 189.138752,178.043722 C190.608802,178.667379 191.978599,178.979203 193.248187,178.979203 C194.495502,178.979203 195.475519,178.739767 196.188271,178.260887 C196.901022,177.782007 197.257392,177.130518 197.257392,176.3064 C197.257392,175.638196 197.040229,175.086936 196.605896,174.652603 C196.171563,174.21827 195.620303,173.867468 194.952099,173.600187 C194.283895,173.332905 193.370696,173.032218 192.212476,172.698116 C190.63106,172.230373 189.339218,171.773773 188.336912,171.328304 C187.334605,170.882835 186.47709,170.209072 185.764339,169.306997 C185.051588,168.404921 184.695217,167.218877 184.695217,165.748828 C184.695217,164.390146 185.057156,163.204102 185.781044,162.190659 C186.504931,161.177216 187.529496,160.392088 188.854767,159.835251 C190.180039,159.278414 191.711317,159 193.448647,159 C194.963243,159 196.461112,159.222731 197.942298,159.668201 C199.423483,160.11367 200.743167,160.715045 201.901387,161.472343 L200.097245,165.381317 C198.894478,164.646293 197.663887,164.078328 196.405436,163.677405 Z" id="JS" fill="#FFFFFF"></path>
                <g id="forbidden_ill_02" transform="translate(144.000000, 131.000000)">
                    <rect id="Rectangle-3" fill="url(#linearGradient-3)" transform="translate(40.000000, 40.000000) rotate(-315.000000) translate(-40.000000, -40.000000) " x="1" y="38" width="78" height="4" rx="2"></rect>
                    <use id="Oval-2" stroke="url(#linearGradient-3)" mask="url(#mask-5)" stroke-width="8" xlink:href="#path-4"></use>
                </g>
                <ellipse id="shadow_02_floating" fill-opacity="0.1" fill="#182359" cx="184.5" cy="271" rx="87.5" ry="8"></ellipse>
            </g>
        </g>
    </g>
</svg>