<svg width="70" height="70" viewBox="0 0 70 70" xmlns="http://www.w3.org/2000/svg"><g fill="none" fill-rule="evenodd"><circle fill="#FFF" cx="35.5" cy="35.5" r="33.5"/><path d="M35 70c19.33 0 35-15.67 35-35S54.33 0 35 0 0 15.67 0 35s15.67 35 35 35zM14.37 25.866c-1.933 0-3.5 1.577-3.5 3.52l.002 14.736c0 1.948 1.57 3.52 3.502 3.523a3.51 3.51 0 0 0 3.5-3.523v-14.74c0-1.94-1.57-3.518-3.503-3.516zm28.237-13.234l2.444-4.486a.485.485 0 1 0-.85-.47l-2.47 4.53a16.767 16.767 0 0 0-6.86-1.445 16.738 16.738 0 0 0-6.844 1.442l-2.47-4.52a.48.48 0 0 0-.66-.195.483.483 0 0 0-.192.66l2.445 4.483c-4.805 2.49-8.05 7.232-8.048 12.676l31.54-.003c0-5.443-3.238-10.175-8.035-12.67zm-14.91 6.93a1.326 1.326 0 0 1-1.318-1.327c0-.73.59-1.33 1.318-1.33a1.33 1.33 0 0 1 0 2.658zm14.36 0c-.728 0-1.322-.594-1.32-1.33 0-.73.59-1.33 1.322-1.332.724.002 1.32.603 1.32 1.333 0 .733-.593 1.328-1.322 1.328zm-22.82 29.805a3.74 3.74 0 0 0 3.735 3.757h2.544l.003 7.798c0 1.94 1.568 3.52 3.498 3.52 1.935 0 3.502-1.58 3.5-3.522v-7.796h4.728v7.796c0 1.942 1.572 3.52 3.502 3.518 1.935 0 3.503-1.578 3.503-3.52V53.12H46.8c2.06 0 3.736-1.683 3.736-3.758l-.004-22.84-31.303.006.007 22.837zm36.15-23.506c-1.934 0-3.5 1.577-3.5 3.52V44.12a3.508 3.508 0 0 0 3.503 3.52c1.934 0 3.5-1.574 3.5-3.52l-.003-14.738c0-1.944-1.567-3.52-3.5-3.52z" fill="#A4C145"/></g></svg>