<svg width="70" height="70" viewBox="0 0 70 70" xmlns="http://www.w3.org/2000/svg"><g transform="translate(-1)" fill="none" fill-rule="evenodd"><circle fill="#3770A0" cx="35.984" cy="35" r="35"/><g stroke="#3770A0" stroke-width=".5"><path d="M11.686 56.78c-.325-9.48-.308-23.152.538-26.725 2.252-9.518 6.937-12.996 16.408-14.573 3.774-.63 7.66-.763 11.497-.78 2.273-.008 4.595.476 6.814 1.05 6.01 1.553 9.643 5.615 11.625 11.376 1.137 3.306 1.81 19.356 2.096 29.216-5.983 6.913-14.822 11.286-24.682 11.286-9.65 0-18.324-4.19-24.298-10.85zm20.696-17.95c0 1.19-.105 2.29.025 3.362.204 1.672 1.75 2.203 3.038 1.112.177-.15.32-.34.517-.553.635 1.073 1.543 1.197 2.55.867 1.012-.333 1.094-1.182 1.045-2.08-.047-.87-.08-1.742-.12-2.69 1.225.05 2.362-.07 2.75-1.362.346-1.154-.08-2.154-.975-2.94a4.965 4.965 0 0 0-.884-.635c-.684-.373-1.396-.568-1.475-1.64-.034-.457-.927-1.15-1.48-1.204a11.453 11.453 0 0 0-3.677.254c-.55.13-.96.895-1.406 1.395-.344.386-.58.9-.982 1.194-.873.632-1.723 1.246-1.795 2.438-.096 1.577.73 2.26 2.87 2.48zm12.734-5.543c4.606.01 7.876-3.11 7.917-7.553.04-4.295-3.53-7.82-7.922-7.822-4.325-.002-7.93 3.498-7.93 7.7 0 4.217 3.566 7.666 7.936 7.675zM25.833 18.78c-4.434-.017-7.96 3.358-7.968 7.627-.01 4.244 3.554 7.706 7.928 7.705 4.31-.002 7.88-3.437 7.904-7.604.024-4.288-3.46-7.712-7.864-7.728z" fill="#FFF"/><path d="M11.51 28.92c-1.982-.655-3.338-1.8-3.71-3.838-.36-1.984.13-3.758 1.847-4.926 2.086-1.42 4.315-1.224 6.66-.32l-2.15 2.892c-.31-.062-.653-.167-1-.193-1.256-.096-2.35 1.365-1.546 2.252 1.398 1.54.19 2.71-.1 4.134M56.834 21.495L54.59 18.82c1.957-.987 3.91-1.236 5.9-.342 1.91.857 2.692 2.476 2.692 4.5.002 2.327-1.37 3.684-3.446 4.677-.37-.91-.746-1.783-1.067-2.676-.062-.17.033-.478.167-.615.697-.723 1.185-1.494.545-2.472-.68-1.035-1.636-.812-2.548-.398" fill="#FFF"/><path d="M32.382 38.83c-2.14-.22-2.965-.905-2.87-2.482.073-1.192.923-1.806 1.796-2.44.403-.292.638-.807.982-1.193.447-.5.857-1.265 1.406-1.395 1.186-.28 2.463-.37 3.676-.254.554.053 1.447.747 1.48 1.203.08 1.072.792 1.267 1.476 1.64.317.172.612.397.884.635.895.786 1.32 1.786.975 2.94-.388 1.29-1.525 1.41-2.75 1.363.04.947.073 1.818.12 2.688.05.9-.033 1.748-1.046 2.08-1.005.33-1.913.207-2.548-.865-.197.214-.34.404-.517.554-1.287 1.09-2.834.56-3.038-1.112-.13-1.072-.025-2.172-.025-3.363zm-.36-.528c.216-.04.677-.05 1.083-.206 1.843-.705 3.65-.96 5.46.115.293.174.705.17 1.066.193.84.056 1.712-.003 2.07-.895.43-1.068.02-2.04-.86-2.682-.757-.55-1.528-1.545-2.64-.802-1.58 1.056-3.184 1.014-4.845.33-1.277-.523-2.895.224-3.3 1.557-.395 1.302.386 2.375 1.968 2.392zm3.822-.486c-.834.232-1.503.364-2.124.615-.278.113-.608.437-.66.712-.158.867-.263 1.756-.262 2.636 0 .797.23 1.592 1.245 1.608.954.014 1.515-.58 1.6-1.486.123-1.275.132-2.56.2-4.084zm.542.224c0 1.42-.08 2.824.05 4.21.04.387.69.98 1.087 1 .49.028 1.288-.318 1.466-.718.937-2.12-.196-4.072-2.604-4.492zM45.116 33.287c-4.37-.01-7.936-3.458-7.936-7.675 0-4.202 3.605-7.702 7.93-7.7 4.392.002 7.962 3.527 7.923 7.822-.04 4.443-3.31 7.562-7.917 7.553zm-7.483-7.763c-.037 4.03 3.316 7.306 7.484 7.314 4.316.01 7.45-2.947 7.507-7.077.054-3.994-3.337-7.357-7.455-7.392-4.078-.034-7.5 3.216-7.537 7.156zM25.833 18.78c4.404.016 7.888 3.44 7.864 7.728-.024 4.167-3.595 7.602-7.904 7.604-4.374 0-7.937-3.46-7.928-7.705.01-4.27 3.534-7.644 7.968-7.627zm-.047.438c-4.155.003-7.462 3.194-7.465 7.205-.003 3.998 3.32 7.218 7.456 7.225 4.122.008 7.462-3.223 7.466-7.22.004-4.01-3.308-7.213-7.456-7.21z" fill="#3770A0"/><path d="M32.023 38.302c-1.582-.017-2.363-1.09-1.968-2.39.405-1.334 2.023-2.08 3.3-1.557 1.66.683 3.265.725 4.845-.33 1.112-.744 1.883.25 2.64.8.88.643 1.29 1.615.86 2.683-.358.892-1.23.95-2.07.895-.36-.024-.772-.02-1.064-.192-1.81-1.074-3.618-.82-5.46-.114-.407.156-.868.167-1.083.206" fill="#FFF"/><path d="M35.844 37.816c-.07 1.523-.078 2.81-.2 4.084-.086.906-.647 1.5-1.6 1.486-1.017-.016-1.245-.81-1.246-1.608 0-.88.104-1.77.263-2.636.052-.275.382-.6.66-.71.62-.252 1.29-.384 2.124-.616M36.386 38.04c2.408.42 3.54 2.37 2.603 4.492-.18.4-.977.746-1.467.72-.396-.023-1.048-.615-1.086-1.003-.132-1.386-.05-2.79-.05-4.21M37.633 25.524c.037-3.94 3.46-7.19 7.536-7.156 4.117.035 7.508 3.398 7.454 7.393-.056 4.13-3.19 7.087-7.507 7.078-4.168-.008-7.52-3.285-7.484-7.314zm3.433-1.918c-1.426 0-2.615 1.108-2.652 2.47-.04 1.392 1.195 2.614 2.643 2.618 1.464.003 2.65-1.175 2.63-2.61-.02-1.38-1.183-2.478-2.62-2.478zM25.786 19.218c4.148-.003 7.46 3.2 7.456 7.21-.004 3.997-3.344 7.228-7.466 7.22-4.136-.007-7.46-3.227-7.455-7.225.004-4.01 3.31-7.202 7.466-7.205zM21.578 29.36c1.45.03 2.62-1.026 2.675-2.412.056-1.452-1.08-2.636-2.555-2.666-1.473-.03-2.696 1.124-2.695 2.546.002 1.383 1.14 2.503 2.575 2.533z" fill="#FFF"/><path d="M41.066 23.606c1.438 0 2.6 1.1 2.62 2.48.022 1.433-1.165 2.61-2.63 2.608-1.447-.004-2.68-1.226-2.642-2.618.037-1.362 1.226-2.47 2.652-2.47M21.578 29.36c-1.435-.03-2.573-1.15-2.575-2.532 0-1.422 1.222-2.577 2.695-2.546 1.476.03 2.61 1.214 2.555 2.666-.054 1.386-1.225 2.443-2.675 2.413" fill="#3770A0"/></g></g></svg>