<svg width="70" height="70" viewBox="0 0 70 70" xmlns="http://www.w3.org/2000/svg"><g fill="none" fill-rule="evenodd"><circle fill="#404040" cx="34.5" cy="34.5" r="33.5"/><path d="M35 70c19.33 0 35-15.67 35-35S54.33 0 35 0 0 15.67 0 35s15.67 35 35 35zm23.277-21.78c-.406-2.53-2.057-4.656-6.947-6.64-1.698-.78-3.592-1.34-4.156-2.626-.2-.75-.227-1.17-.1-1.625.364-1.472 2.12-1.93 3.513-1.51.896.3 1.746.992 2.257 2.095 2.395-1.55 2.39-1.54 4.062-2.606-.612-.95-.94-1.388-1.34-1.794-1.44-1.61-3.402-2.437-6.54-2.374-.544.07-1.092.142-1.636.21-1.566.397-3.06 1.22-3.935 2.322-2.626 2.98-1.877 8.197 1.32 10.344 3.148 2.363 7.774 2.9 8.365 5.11.575 2.707-1.99 3.582-4.537 3.27-1.877-.39-2.922-1.344-4.05-3.08-2.08 1.203-2.08 1.203-4.215 2.432.506 1.108 1.04 1.61 1.888 2.57 4.02 4.076 14.08 3.876 15.882-2.295.074-.21.56-1.625.17-3.804zM37.495 31.47h-5.19c0 4.483-.02 8.934-.02 13.418 0 2.853.146 5.47-.318 6.27-.76 1.58-2.727 1.383-3.624 1.078-.912-.45-1.376-1.087-1.914-1.99-.15-.257-.26-.458-.297-.474-1.408.86-2.81 1.725-4.22 2.585.702 1.44 1.736 2.69 3.06 3.502 1.978 1.186 4.636 1.55 7.416.912 1.808-.528 3.37-1.62 4.187-3.28 1.182-2.18.928-4.817.918-7.734.026-4.758 0-9.515 0-14.29z" fill="#FFC168"/></g></svg>