<svg width="70" height="70" viewBox="0 0 70 70" xmlns="http://www.w3.org/2000/svg"><g fill="none" fill-rule="evenodd"><circle fill="#FFF" cx="35.5" cy="34.5" r="33.5"/><path d="M35 70c19.33 0 35-15.67 35-35S54.33 0 35 0 0 15.67 0 35s15.67 35 35 35zM11.093 46.27l3.7-18.73h8.554c3.7.232 5.55 2.082 5.55 5.32 0 5.548-4.394 8.785-8.324 8.553H16.41l-.924 4.856h-4.393zm6.243-8.325l1.156-6.936h3.006c1.618 0 2.774.693 2.774 2.08-.23 3.93-2.08 4.624-4.162 4.855h-2.774zm10.97 3.734l3.7-18.73H36.4l-.926 4.856h4.162c3.7.23 5.086 2.08 4.624 4.393l-1.62 9.48h-4.623l1.62-8.556c.23-1.156.23-1.85-1.39-1.85H34.78L32.7 41.68h-4.394zm14.918 4.59l3.7-18.73h8.554c3.7.232 5.55 2.082 5.55 5.32 0 5.548-4.393 8.785-8.324 8.553h-4.162l-.925 4.856h-4.393zm6.243-8.325l1.156-6.936h3.006c1.617 0 2.773.693 2.773 2.08-.23 3.93-2.08 4.624-4.16 4.855h-2.776z" fill="#6C7EB7"/></g></svg>