<svg width="70" height="70" viewBox="0 0 70 70" xmlns="http://www.w3.org/2000/svg"><g fill="none" fill-rule="evenodd"><circle fill="#FFF" cx="35.5" cy="35.5" r="33.5"/><path d="M35 70c19.33 0 35-15.67 35-35S54.33 0 35 0 0 15.67 0 35s15.67 35 35 35zm.297-58.106c-11.743 0-11.01 5.092-11.01 5.092l.014 5.276h11.206v1.584H19.85s-7.514-.852-7.514 10.996 6.558 11.428 6.558 11.428h3.914v-5.498s-.21-6.56 6.454-6.56h11.114s6.244.102 6.244-6.033V18.033s.948-6.14-11.323-6.14zm-6.18 3.548c1.116 0 2.017.9 2.017 2.016 0 1.115-.9 2.016-2.016 2.016-1.115 0-2.016-.9-2.016-2.016 0-1.115.9-2.016 2.016-2.016z" fill="#3770A0"/><path d="M35.896 58.482c11.742 0 11.01-5.093 11.01-5.093l-.014-5.276H35.686V46.53h15.656s7.514.852 7.514-10.996-6.558-11.428-6.558-11.428h-3.914v5.498s.21 6.56-6.454 6.56H30.817s-6.245-.102-6.245 6.033v10.145s-.948 6.14 11.324 6.14zm6.678-4.017c-1.115 0-2.016-.9-2.016-2.016s.9-2.017 2.016-2.017c1.115 0 2.016.9 2.016 2.016 0 1.114-.9 2.015-2.016 2.015z" fill="#FFD141"/></g></svg>