<svg width="70" height="70" viewBox="0 0 70 70" xmlns="http://www.w3.org/2000/svg"><g fill="none" fill-rule="evenodd"><circle fill="#A62C46" cx="35" cy="35" r="35"/><circle fill="#A62C46" cx="35" cy="35" r="33.279"/><path d="M50.616 16.066H19.958L5.164 29.922l30.123 31.395L65.41 29.922 50.616 16.066zm-1.74 14.66l-13.59 26.842L21.7 30.725h27.178zm-26.308-1.473l12.72-10.778 12.717 10.778H22.568zm14.727-10.978h11.982v10.108L37.295 18.275zM21.23 28.45V18.274h12.05L21.23 28.45zm-1.138 2.275l12.316 24.433L8.98 30.725h11.112zm30.39 0h11.045l-23.43 24.433 12.385-24.433zm.268-1.472v-10.04l10.71 10.04H50.75zm-30.993 0H9.113l10.644-9.974v9.973z" fill="#F2F2F2"/></g></svg>