<svg width="70" height="70" viewBox="0 0 70 70" xmlns="http://www.w3.org/2000/svg"><g fill="none" fill-rule="evenodd"><path d="M35 70c19.33 0 35-15.67 35-35S54.33 0 35 0 0 15.67 0 35s15.67 35 35 35z" fill="#DC332D"/><path d="M19.34 27.622s31.27 3.16 31.27 8.423V23.41s0-5.264-31.27-8.423v12.636zM19.34 44.468s31.27 3.16 31.27 8.423V40.258s0-5.265-31.27-8.423v12.634z" fill="#FF9898"/><path d="M50.66 6.614V19.25s0 5.263-31.27 8.422V14.987c-.05 0 31.27-3.108 31.27-8.373M19.34 31.834s31.27-3.16 31.27-8.424v12.635s0 5.265-31.27 8.423V31.834zM19.34 61.264V48.63s31.27-3.16 31.27-8.423V52.84c.05.05.05 5.266-31.27 8.424" fill="#FFF"/></g></svg>