<?xml version="1.0" encoding="UTF-8"?>
<svg width="368px" height="368px" viewBox="0 0 368 368" version="1.1" xmlns="http://www.w3.org/2000/svg" xmlns:xlink="http://www.w3.org/1999/xlink">
    <!-- Generator: Sketch 42 (36781) - http://www.bohemiancoding.com/sketch -->
    <title>offline_illustration</title>
    <desc>Created with Sketch.</desc>
    <defs>
        <linearGradient x1="130.032269%" y1="133.046875%" x2="-16.8002717%" y2="0%" id="linearGradient-1">
            <stop stop-color="#1F1A37" offset="0%"></stop>
            <stop stop-color="#3E366A" offset="100%"></stop>
        </linearGradient>
        <linearGradient x1="76.542575%" y1="-15.5777928%" x2="76.5425742%" y2="148.978728%" id="linearGradient-2">
            <stop stop-color="#FFFFFF" stop-opacity="0" offset="0%"></stop>
            <stop stop-color="#FFFFFF" offset="100%"></stop>
        </linearGradient>
        <linearGradient x1="31.2343089%" y1="-9.22874415%" x2="81.1261232%" y2="104.898352%" id="linearGradient-3">
            <stop stop-color="#1CC7D0" offset="0%"></stop>
            <stop stop-color="#2EDE98" offset="100%"></stop>
        </linearGradient>
    </defs>
    <g id="Page-1" stroke="none" stroke-width="1" fill="none" fill-rule="evenodd">
        <g id="offline_illustration">
            <g>
                <circle id="background_01" fill="#F7F7FF" cx="184" cy="184" r="184"></circle>
                <ellipse id="shadow_o1" fill-opacity="0.1" fill="#182359" cx="184.5" cy="271" rx="87.5" ry="8"></ellipse>
                <rect id="screen_background_01" fill="url(#linearGradient-1)" x="72" y="103" width="224" height="136" rx="4"></rect>
                <polygon id="flare_01" fill="url(#linearGradient-2)" style="mix-blend-mode: overlay;" opacity="0.38708107" points="192 103 296 103 296 239 143 239"></polygon>
                <path d="M84,119 C81.790861,119 80,117.209139 80,115 C80,112.790861 81.790861,111 84,111 C86.209139,111 88,112.790861 88,115 C88,117.209139 86.209139,119 84,119 Z M98,119 C95.790861,119 94,117.209139 94,115 C94,112.790861 95.790861,111 98,111 C100.209139,111 102,112.790861 102,115 C102,117.209139 100.209139,119 98,119 Z M112,119 C109.790861,119 108,117.209139 108,115 C108,112.790861 109.790861,111 112,111 C114.209139,111 116,112.790861 116,115 C116,117.209139 114.209139,119 112,119 Z" id="buttons_01" fill="#FFFFFF" style="mix-blend-mode: overlay;" opacity="0.38708107"></path>
                <path d="M181.836751,171.462875 C178.949758,172.05751 176.451665,173.87049 174.845192,176.608453 C174.535072,177.171472 173.914831,177.493197 173.29459,177.412766 C172.829409,177.332334 172.364229,177.091041 171.976578,176.608453 C171.433868,175.884572 171.356337,174.838966 171.821518,174.115084 C174.690132,169.289209 179.574529,166.715409 185.001637,167.278428 C185.278984,167.317663 185.554282,167.361152 185.827863,167.409585 L193.091768,160.032514 C190.574752,158.679783 187.843833,157.824411 185.001637,157.546246 C177.326156,156.822365 170.348446,160.441771 166.31688,167.358859 C165.774169,168.324034 164.456158,168.484897 163.603326,167.600153 C162.905555,166.876271 162.828025,165.669803 163.293206,164.86549 C168.022543,156.902796 176.085674,152.63994 185.001637,153.524683 C188.806403,153.889035 192.478588,155.216178 195.817997,157.263812 L199.499767,153.524683 C200.120008,152.881233 201.20543,152.800802 201.980731,153.444252 C202.911092,154.328996 202.988622,155.696327 202.213321,156.50064 L172.674349,186.501497 C172.286699,186.984085 171.821518,187.064516 171.356337,187.064516 C170.891157,186.984085 170.425976,186.742791 170.038326,186.340635 C169.340555,185.455891 169.340555,184.168991 170.038326,183.44511 L181.836751,171.462875 L181.836751,171.462875 Z M185,179.98677 C187.322581,180.22034 189.258065,182.478178 189.258065,184.969586 C189.258065,187.538851 187.322581,189.407407 185,189.173837 C182.677419,188.940268 180.741935,186.682429 180.741935,184.191021 C180.741935,181.699613 182.677419,179.753201 185,179.98677 Z M195.069614,178.195328 C195.697071,179.347915 197.18728,179.655271 198.050032,178.656363 C198.599057,178.118489 198.599057,177.119581 198.206896,176.428029 C196.951983,174.199695 195.30491,172.278718 193.344109,170.741935 L193.265677,170.741935 L190.677419,173.200787 L190.677419,173.277626 C192.402924,174.507051 193.971566,176.197512 195.069614,178.195328 Z M206.706397,169.14807 C205.361992,166.62348 203.701257,164.261766 201.803275,162.225806 L201.724192,162.225806 L199.193548,164.750397 L199.193548,164.831835 C200.933366,166.62348 202.356853,168.740878 203.622175,171.021153 C203.938505,171.67266 204.571166,172.079852 205.203827,172.16129 C205.59924,172.16129 205.994653,172.079852 206.310984,171.835537 C207.10181,171.346906 207.180892,170.125331 206.706397,169.14807 Z" id="Combined-Shape" fill="#FFFFFF"></path>
                <ellipse id="check_bg_01" fill="url(#linearGradient-3)" cx="265.269908" cy="102.555892" rx="13.2699085" ry="13.5558923"></ellipse>
                <path d="M271.595461,99.3249543 L263.68852,107.402299 L258.944356,102.555892 C258.600576,102.204703 258.600576,101.572563 258.944356,101.221374 C259.288136,100.870186 259.90694,100.870186 260.25072,101.221374 L263.654142,104.698145 L270.254719,97.9553175 C270.598499,97.6041286 271.217303,97.6041286 271.561083,97.9553175 C271.973619,98.3767442 271.973619,98.9386465 271.595461,99.3249543 Z" id="check_01" fill="#FFFFFF"></path>
            </g>
        </g>
    </g>
</svg>