<?xml version="1.0" encoding="UTF-8"?>
<svg width="768px" height="230px" viewBox="0 0 768 230" version="1.1" xmlns="http://www.w3.org/2000/svg" xmlns:xlink="http://www.w3.org/1999/xlink">
    <!-- Generator: Sketch 42 (36781) - http://www.bohemiancoding.com/sketch -->
    <title>Rectangle 2 Copy</title>
    <desc>Created with Sketch.</desc>
    <defs>
        <linearGradient x1="130.032269%" y1="133.046875%" x2="-16.8002717%" y2="0%" id="linearGradient-1">
            <stop stop-color="#1F1A37" offset="0%"></stop>
            <stop stop-color="#3E366A" offset="100%"></stop>
        </linearGradient>
    </defs>
    <g id="Page-1" stroke="none" stroke-width="1" fill="none" fill-rule="evenodd">
        <g id="00-copy-2" transform="translate(-48.000000, -48.000000)">
            <rect id="Rectangle" fill="url(#linearGradient-1)" x="48" y="48" width="768" height="999" rx="16"></rect>
            <g id="Page-1" transform="translate(75.000000, -25.000000)">
                <g id="Group-5" transform="translate(128.000000, 142.000000)" fill="#FFFFFF">
                    <path d="M2.63350376,1.52208712 C2.63350376,2.11871591 2.14917293,2.60163258 1.55079699,2.60163258 C0.952421053,2.60163258 0.468090226,2.11871591 0.468090226,1.52208712 C0.468090226,0.925458333 0.952421053,0.442541667 1.55079699,0.442541667 C2.14917293,0.442541667 2.63350376,0.925458333 2.63350376,1.52208712" id="Fill-1"></path>
                    <path d="M190.567002,94.3158561 C192.385949,94.3158561 192.388836,91.496803 190.567002,91.496803 C188.747332,91.496803 188.745167,94.3158561 190.567002,94.3158561" id="Fill-3"></path>
                </g>
                <path d="M231.499554,92 C233.498562,92 233.501734,89 231.499554,89 L231.499554,89 C229.501338,89 229.498959,92 231.499554,92" id="Fill-6"></path>
                <path d="M325.5,288 C327.498017,288 327.501982,285 325.5,285 L325.5,285 C323.50119,285 323.498811,288 325.5,288" id="Fill-13"></path>
                <path d="M60.5001487,265 C62.4983642,265 62.501536,262 60.5001487,262 L60.5001487,262 C58.5019333,262 58.4979686,265 60.5001487,265" id="Fill-15"></path>
                <g id="Group-61" fill="#FFFFFF">
                    <path d="M49.7409109,301.400015 C51.5569433,301.400015 51.5598259,298.572511 49.7409109,298.572511 C47.9248785,298.572511 47.921996,301.400015 49.7409109,301.400015" id="Fill-19"></path>
                    <path d="M57.7570364,176.710223 C59.5737895,176.710223 59.5759514,173.882719 57.7570364,173.882719 C55.941004,173.882719 55.9381215,176.710223 57.7570364,176.710223" id="Fill-21"></path>
                    <path d="M118.595851,172.439732 C120.411883,172.439732 120.414766,169.612229 118.595851,169.612229 C116.779819,169.612229 116.776936,172.439732 118.595851,172.439732" id="Fill-23"></path>
                    <path d="M1.36317733,178.474723 C3.17920972,178.474723 3.18209231,175.64722 1.36317733,175.64722 C-0.452855061,175.64722 -0.455737652,178.474723 1.36317733,178.474723" id="Fill-25"></path>
                    <path d="M63.3850073,166.77166 C65.2010397,166.77166 65.2039223,163.944157 63.3850073,163.944157 C61.5689749,163.944157 61.5660923,166.77166 63.3850073,166.77166" id="Fill-27"></path>
                    <path d="M299.376398,295.732303 C301.193151,295.732303 301.195313,292.9048 299.376398,292.9048 C297.559645,292.9048 297.557483,295.732303 299.376398,295.732303" id="Fill-31"></path>
                    <path d="M354.587602,301.400015 C356.403635,301.400015 356.406517,298.572511 354.587602,298.572511 C352.770849,298.572511 352.768687,301.400015 354.587602,301.400015" id="Fill-33"></path>
                    <path d="M123.095648,287.132781 C124.91168,287.132781 124.914563,284.305277 123.095648,284.305277 C121.278895,284.305277 121.276733,287.132781 123.095648,287.132781" id="Fill-35"></path>
                    <path d="M249.670006,191.489179 C251.486039,191.489179 251.488201,188.661675 249.670006,188.661675 C247.853253,188.661675 247.851091,191.489179 249.670006,191.489179" id="Fill-39"></path>
                    <path d="M290.806023,124.831203 C292.622776,124.831203 292.624938,122.0037 290.806023,122.0037 C288.98999,122.0037 288.987108,124.831203 290.806023,124.831203" id="Fill-43"></path>
                    <path d="M237.005198,109.363165 L237.005198,109.363165 C237.882947,112.35092 240.215684,114.687562 243.199166,115.567503 C240.215684,116.446721 237.882947,118.783364 237.005198,121.771119 C236.126729,118.783364 233.793992,116.446721 230.811231,115.567503 C233.793992,114.687562 236.126729,112.35092 237.005198,109.363165" id="Fill-45"></path>
                    <path d="M344.534422,249.875498 L344.534422,249.875498 C345.412891,252.863975 347.745628,255.200617 350.72911,256.079836 C347.745628,256.959054 345.412891,259.296419 344.534422,262.284174 C343.656673,259.296419 341.323936,256.959054 338.340454,256.079836 C341.323936,255.200617 343.656673,252.863975 344.534422,249.875498" id="Fill-47"></path>
                    <path d="M84.2824235,267.712518 L84.2824235,267.712518 C85.1601725,270.700273 87.49363,273.036915 90.4763911,273.916856 C87.49363,274.796074 85.1601725,277.132717 84.2824235,280.120472 C83.4046745,277.132717 81.071217,274.796074 78.0884559,273.916856 C81.071217,273.036915 83.4046745,270.700273 84.2824235,267.712518" id="Fill-51"></path>
                    <path d="M75.7725822,229.377434 L75.7725822,229.377434 C76.6503312,232.365911 78.9837887,234.702554 81.9665498,235.581772 C78.9837887,236.460991 76.6503312,238.798355 75.7725822,241.785388 C74.8948332,238.798355 72.5613757,236.460991 69.5786146,235.581772 C72.5613757,234.702554 74.8948332,232.365911 75.7725822,229.377434" id="Fill-53"></path>
                    <path d="M156.918242,95.1565669 L156.918242,95.1565669 C157.795991,98.1450437 160.129449,100.481686 163.11221,101.360905 C160.129449,102.240123 157.795991,104.576766 156.918242,107.565242 C156.040493,104.576766 153.707036,102.240123 150.724274,101.360905 C153.707036,100.481686 156.040493,98.1450437 156.918242,95.1565669" id="Fill-59"></path>
                </g>
            </g>
            <g id="Page-1-Copy" transform="translate(635.500000, 231.500000) scale(-1, -1) translate(-635.500000, -231.500000) translate(457.000000, 68.000000)">
                <g id="Group-5" transform="translate(128.000000, 142.000000)" fill="#FFFFFF">
                    <path d="M2.63350376,1.52208712 C2.63350376,2.11871591 2.14917293,2.60163258 1.55079699,2.60163258 C0.952421053,2.60163258 0.468090226,2.11871591 0.468090226,1.52208712 C0.468090226,0.925458333 0.952421053,0.442541667 1.55079699,0.442541667 C2.14917293,0.442541667 2.63350376,0.925458333 2.63350376,1.52208712" id="Fill-1"></path>
                    <path d="M190.567002,94.3158561 C192.385949,94.3158561 192.388836,91.496803 190.567002,91.496803 C188.747332,91.496803 188.745167,94.3158561 190.567002,94.3158561" id="Fill-3"></path>
                </g>
                <g id="Group-12" transform="translate(9.000000, 303.000000)" fill="#FFFFFF">
                    <path d="M1.71687205,3.19432727 C3.53324472,3.19432727 3.53540621,0.3456 1.71687205,0.3456 C-0.0987801242,0.3456 -0.101662112,3.19432727 1.71687205,3.19432727" id="Fill-8"></path>
                    <path d="M346.122097,23.9997091 C347.93847,23.9997091 347.940631,21.1517091 346.122097,21.1517091 C344.306445,21.1517091 344.304283,23.9997091 346.122097,23.9997091" id="Fill-10"></path>
                </g>
                <path d="M325.5,288 C327.498017,288 327.501982,285 325.5,285 L325.5,285 C323.50119,285 323.498811,288 325.5,288" id="Fill-13"></path>
                <path d="M60.5001487,265 C62.4983642,265 62.501536,262 60.5001487,262 L60.5001487,262 C58.5019333,262 58.4979686,265 60.5001487,265" id="Fill-15"></path>
                <g id="Group-61" fill="#FFFFFF">
                    <path d="M49.7409109,301.400015 C51.5569433,301.400015 51.5598259,298.572511 49.7409109,298.572511 C47.9248785,298.572511 47.921996,301.400015 49.7409109,301.400015" id="Fill-19"></path>
                    <path d="M57.7570364,176.710223 C59.5737895,176.710223 59.5759514,173.882719 57.7570364,173.882719 C55.941004,173.882719 55.9381215,176.710223 57.7570364,176.710223" id="Fill-21"></path>
                    <path d="M118.595851,172.439732 C120.411883,172.439732 120.414766,169.612229 118.595851,169.612229 C116.779819,169.612229 116.776936,172.439732 118.595851,172.439732" id="Fill-23"></path>
                    <path d="M1.36317733,178.474723 C3.17920972,178.474723 3.18209231,175.64722 1.36317733,175.64722 C-0.452855061,175.64722 -0.455737652,178.474723 1.36317733,178.474723" id="Fill-25"></path>
                    <path d="M63.3850073,166.77166 C65.2010397,166.77166 65.2039223,163.944157 63.3850073,163.944157 C61.5689749,163.944157 61.5660923,166.77166 63.3850073,166.77166" id="Fill-27"></path>
                    <path d="M288.005802,321.308107 C288.005802,320.710411 288.490077,320.225325 289.086773,320.225325 C289.68347,320.225325 290.167745,320.710411 290.167745,321.308107 C290.167745,321.905802 289.68347,322.390888 289.086773,322.390888 C288.490077,322.390888 288.005802,321.905802 288.005802,321.308107" id="Fill-29"></path>
                    <path d="M299.376398,295.732303 C301.193151,295.732303 301.195313,292.9048 299.376398,292.9048 C297.559645,292.9048 297.557483,295.732303 299.376398,295.732303" id="Fill-31"></path>
                    <path d="M354.587602,301.400015 C356.403635,301.400015 356.406517,298.572511 354.587602,298.572511 C352.770849,298.572511 352.768687,301.400015 354.587602,301.400015" id="Fill-33"></path>
                    <path d="M123.095648,287.132781 C124.91168,287.132781 124.914563,284.305277 123.095648,284.305277 C121.278895,284.305277 121.276733,287.132781 123.095648,287.132781" id="Fill-35"></path>
                    <path d="M249.670006,191.489179 C251.486039,191.489179 251.488201,188.661675 249.670006,188.661675 C247.853253,188.661675 247.851091,191.489179 249.670006,191.489179" id="Fill-39"></path>
                    <path d="M290.806023,124.831203 C292.622776,124.831203 292.624938,122.0037 290.806023,122.0037 C288.98999,122.0037 288.987108,124.831203 290.806023,124.831203" id="Fill-43"></path>
                    <path d="M237.005198,109.363165 L237.005198,109.363165 C237.882947,112.35092 240.215684,114.687562 243.199166,115.567503 C240.215684,116.446721 237.882947,118.783364 237.005198,121.771119 C236.126729,118.783364 233.793992,116.446721 230.811231,115.567503 C233.793992,114.687562 236.126729,112.35092 237.005198,109.363165" id="Fill-45"></path>
                    <path d="M344.534422,249.875498 L344.534422,249.875498 C345.412891,252.863975 347.745628,255.200617 350.72911,256.079836 C347.745628,256.959054 345.412891,259.296419 344.534422,262.284174 C343.656673,259.296419 341.323936,256.959054 338.340454,256.079836 C341.323936,255.200617 343.656673,252.863975 344.534422,249.875498" id="Fill-47"></path>
                    <path d="M84.2824235,267.712518 L84.2824235,267.712518 C85.1601725,270.700273 87.49363,273.036915 90.4763911,273.916856 C87.49363,274.796074 85.1601725,277.132717 84.2824235,280.120472 C83.4046745,277.132717 81.071217,274.796074 78.0884559,273.916856 C81.071217,273.036915 83.4046745,270.700273 84.2824235,267.712518" id="Fill-51"></path>
                    <path d="M75.7725822,229.377434 L75.7725822,229.377434 C76.6503312,232.365911 78.9837887,234.702554 81.9665498,235.581772 C78.9837887,236.460991 76.6503312,238.798355 75.7725822,241.785388 C74.8948332,238.798355 72.5613757,236.460991 69.5786146,235.581772 C72.5613757,234.702554 74.8948332,232.365911 75.7725822,229.377434" id="Fill-53"></path>
                    <path d="M41.6663409,310.303366 L41.6663409,310.304087 C42.5440899,313.291842 44.8775474,315.628485 47.8603085,316.508425 C44.8775474,317.386922 42.5440899,319.724286 41.6663409,322.712041 C40.7885919,319.724286 38.4551344,317.386922 35.4723733,316.508425 C38.4551344,315.628485 40.7885919,313.291842 41.6663409,310.304087 L41.6663409,310.303366 Z" id="Fill-55"></path>
                    <path d="M321.221034,314.090935 L321.221034,314.090935 C322.099504,317.07869 324.43224,319.415332 327.415722,320.295273 C324.43224,321.174491 322.099504,323.511134 321.221034,326.498889 C320.343285,323.511134 318.010548,321.174491 315.027066,320.295273 C318.010548,319.415332 320.343285,317.07869 321.221034,314.090935" id="Fill-57"></path>
                </g>
            </g>
            <path d="M48,275.567251 L816,194 L816,1128.99168 C816,1137.83283 808.827275,1145 800.003386,1145 L63.9966143,1145 C55.1619282,1145 48,1137.84163 48,1129.0026 L48,275.567251 Z" id="Rectangle-3" fill="#FFFFFF"></path>
        </g>
    </g>
</svg>