<?xml version="1.0" encoding="UTF-8"?>
<svg width="205px" height="51px" viewBox="0 0 205 51" version="1.1" xmlns="http://www.w3.org/2000/svg" xmlns:xlink="http://www.w3.org/1999/xlink">
    <!-- Generator: Sketch 42 (36781) - http://www.bohemiancoding.com/sketch -->
    <title>algolia-logo-horizontal</title>
    <desc>Created with Sketch.</desc>
    <defs>
        <linearGradient x1="-37.7495446%" y1="134.935721%" x2="130.238907%" y2="-27.7001301%" id="linearGradient-1">
            <stop stop-color="#00AEFF" offset="0%"></stop>
            <stop stop-color="#3369E7" offset="100%"></stop>
        </linearGradient>
    </defs>
    <g id="Page-1" stroke="none" stroke-width="1" fill="none" fill-rule="evenodd">
        <g id="00" transform="translate(-618.000000, -128.000000)" fill-rule="nonzero">
            <g id="Group-5">
                <g id="Group-4" transform="translate(618.000000, 128.000000)">
                    <g id="algolia-logo-horizontal">
                        <g id="Group">
                            <path d="M6.73998883,0.0611638369 L44.1023013,0.0611638369 C47.7800578,0.0611638369 50.7807377,3.02760993 50.7807377,6.69744014 L50.7807377,43.8391801 C50.7807377,47.4937194 47.7954459,50.4754564 44.1023013,50.4754564 L6.73998883,50.4754564 C3.06223237,50.4754564 0.0615524094,47.5090103 0.0615524094,43.8391801 L0.0615524094,6.68214918 C0.0615524094,3.02760993 3.04684426,0.0611638369 6.73998883,0.0611638369 Z" id="Shape" fill="url(#linearGradient-1)"></path>
                            <path d="M26.005893,12.7985329 C18.0964084,12.7985329 11.6795697,19.1748629 11.6795697,27.0497069 C11.6795697,34.9245509 18.0964084,41.2855899 26.005893,41.2855899 C33.9153776,41.2855899 40.3322162,34.9092599 40.3322162,27.0344159 C40.3322162,19.1595719 33.9307657,12.7985329 26.005893,12.7985329 Z M26.005893,37.0805761 C20.4353999,37.0805761 15.9112978,32.5850341 15.9112978,27.0497069 C15.9112978,21.5143796 20.4353999,17.0188376 26.005893,17.0188376 C31.576386,17.0188376 36.1004881,21.5143796 36.1004881,27.0497069 C36.1004881,32.5850341 31.5917741,37.0805761 26.005893,37.0805761 Z M26.005893,19.0678262 L26.005893,26.5451052 C26.005893,26.7591787 26.2367145,26.9120882 26.4367598,26.8050515 L33.1151962,23.3645857 C33.2690773,23.2881309 33.3152416,23.1046394 33.2383011,22.9517298 C31.8533719,20.5357582 29.2835588,18.8843347 26.313655,18.7772979 C26.159774,18.7772979 26.005893,18.8996256 26.005893,19.0678262 Z M16.6499267,13.5783718 L15.7728049,12.7067871 C14.9110712,11.8504934 13.526142,11.8504934 12.6644082,12.7067871 L11.6180173,13.7465724 C10.7562835,14.6028661 10.7562835,15.9790524 11.6180173,16.8353461 L12.479751,17.6916398 C12.6182439,17.8292585 12.8182893,17.7986765 12.9413941,17.6610579 C13.4492014,16.9729647 14.0031731,16.3154535 14.6186972,15.7038151 C15.2496094,15.0768858 15.8959097,14.5264113 16.6037624,14.0218096 C16.7576435,13.9300639 16.7730316,13.7159904 16.6499267,13.5783718 Z M30.6992642,11.3153098 L30.6992642,9.58743144 C30.6992642,8.37944566 29.7144256,7.40082427 28.4987655,7.40082427 L23.3745275,7.40082427 C22.1588674,7.40082427 21.1740288,8.37944566 21.1740288,9.58743144 L21.1740288,11.3611827 C21.1740288,11.5599652 21.3586861,11.6975838 21.5587314,11.6517109 C22.9898249,11.238855 24.4978589,11.0247816 26.0212811,11.0247816 C27.4831508,11.0247816 28.9296324,11.2235641 30.3299497,11.6058381 C30.5146069,11.6517109 30.6992642,11.5140923 30.6992642,11.3153098 Z" id="Shape" fill="#FFFFFF"></path>
                            <g transform="translate(65.553316, 1.529096)" id="Shape" fill="#FFFFFF">
                                <path d="M61.3215878,37.0958671 C61.3215878,41.1785532 60.2751969,44.1602903 58.1670269,46.0563692 C56.0588568,47.9524482 52.8427435,48.9004876 48.5032986,48.9004876 C46.918324,48.9004876 43.6252701,48.5946684 40.9939046,48.013612 L41.9633551,43.2734146 C44.1638537,43.7321434 47.0722051,43.8544711 48.5956272,43.8544711 C51.0115593,43.8544711 52.7350267,43.3651604 53.7660296,42.386539 C54.7970324,41.4079176 55.3048398,39.9552765 55.3048398,38.0286156 L55.3048398,37.0499942 C54.7047038,37.3405224 53.9199106,37.6310507 52.9504602,37.9368699 C51.9810097,38.2273981 50.8576782,38.3803077 49.5958539,38.3803077 C47.9339388,38.3803077 46.4259048,38.1203614 45.0563637,37.6004688 C43.6868226,37.0805761 42.5019387,36.3160282 41.5324882,35.3068249 C40.5630378,34.2976216 39.7936327,33.0284719 39.2550491,31.514667 C38.7164655,30.000862 38.4394797,27.2943622 38.4394797,25.3065375 C38.4394797,23.4410405 38.7318536,21.1015237 39.3012134,19.5418459 C39.8859613,17.9821681 40.7169188,16.6365636 41.8402503,15.5203236 C42.9481936,14.4040836 44.3023467,13.5477899 45.8873212,12.9208606 C47.4722957,12.2939312 49.3342561,11.8963663 51.3500975,11.8963663 C53.3043865,11.8963663 55.1047945,12.1410216 56.8590382,12.4315499 C58.6132818,12.7220781 60.1059278,13.0278973 61.3215878,13.3642984 L61.3215878,37.0958671 L61.3215878,37.0958671 Z M44.5947206,25.2912466 C44.5947206,27.7989639 45.1486923,30.5819185 46.2566356,31.7440314 C47.364579,32.9061443 48.7956725,33.4872007 50.5499162,33.4872007 C51.5039785,33.4872007 52.4118766,33.3495821 53.2582222,33.0896358 C54.1045678,32.8296895 54.7816443,32.5238703 55.3202279,32.1568873 L55.3202279,17.3093659 C54.8893611,17.2176201 53.0889531,16.8506371 51.3500975,16.8047642 C49.164987,16.7436004 47.5030719,17.630476 46.3335762,19.0525352 C45.1794685,20.4745944 44.5947206,22.9670208 44.5947206,25.2912466 Z M89.8819058,25.2912466 C89.8819058,27.3096532 89.5895319,28.8387491 88.9893959,30.5054637 C88.3892599,32.1721782 87.5429142,33.5942374 86.450359,34.7716413 C85.3578037,35.9490452 84.049815,36.8665027 82.5110048,37.508723 C80.9721945,38.1509433 78.6024268,38.5179263 77.4175429,38.5179263 C76.232659,38.5026353 73.8782794,38.1662342 72.3548572,37.508723 C70.8314351,36.8512118 69.5234464,35.9490452 68.4308911,34.7716413 C67.3383359,33.5942374 66.4919902,32.1721782 65.8764661,30.5054637 C65.260942,28.8387491 64.95318,27.3096532 64.95318,25.2912466 C64.95318,23.27284 65.2301658,21.3308881 65.8456899,19.6794645 C66.461214,18.0280409 67.3229478,16.6212727 68.4308911,15.4438688 C69.5388345,14.266465 70.8622113,13.3642984 72.3702453,12.7220781 C73.8936675,12.0798578 75.5709706,11.7740386 77.3867667,11.7740386 C79.2025628,11.7740386 80.8798659,12.0951488 82.4186762,12.7220781 C83.9574864,13.3642984 85.2808632,14.266465 86.3580304,15.4438688 C87.4505856,16.6212727 88.2969313,18.0280409 88.9124553,19.6794645 C89.5587556,21.3308881 89.8819058,23.27284 89.8819058,25.2912466 Z M83.7266649,25.3065375 C83.7266649,22.7223654 83.1573051,20.5663402 82.0493617,19.0678262 C80.9414183,17.5540212 79.38722,16.8047642 77.4021548,16.8047642 C75.4170896,16.8047642 73.8628913,17.5540212 72.7549479,19.0678262 C71.6470045,20.5816311 71.1084209,22.7223654 71.1084209,25.3065375 C71.1084209,27.9212916 71.6623926,29.6797519 72.770336,31.1935568 C73.8782794,32.7226528 75.4324777,33.4719098 77.4175429,33.4719098 C79.4026081,33.4719098 80.9568064,32.7073618 82.0647498,31.1935568 C83.1726932,29.6644609 83.7266649,27.9212916 83.7266649,25.3065375 Z M103.284943,38.5179263 C93.4211693,38.5637992 93.4211693,30.5972094 93.4211693,29.3280598 L93.4057812,1.07036715 L99.4225292,0.122327674 L99.4225292,28.1965288 C99.4225292,28.9152039 99.4225292,33.4719098 103.284943,33.4872007 L103.284943,38.5179263 Z M113.887345,38.5179263 L107.839821,38.5179263 L107.839821,12.7067871 L113.887345,11.7587477 L113.887345,38.5179263 Z M110.855889,8.92992019 C112.871731,8.92992019 114.518258,7.30907851 114.518258,5.30596285 C114.518258,3.30284719 112.887119,1.68200552 110.855889,1.68200552 C108.82466,1.68200552 107.193521,3.30284719 107.193521,5.30596285 C107.193521,7.30907851 108.840048,8.92992019 110.855889,8.92992019 Z M128.921521,11.7740386 C130.906587,11.7740386 132.58389,12.018694 133.938043,12.5080047 C135.292196,12.9973153 136.384751,13.6854085 137.184932,14.5569932 C137.985114,15.4285779 138.554474,16.6212727 138.893012,17.8751313 C139.246938,19.12899 139.416207,20.5051763 139.416207,22.0189813 L139.416207,37.4016863 C138.492921,37.6004688 137.092604,37.8298331 135.215255,38.1050704 C133.337907,38.3803077 131.229737,38.5179263 128.890745,38.5179263 C127.336547,38.5179263 125.905453,38.3650167 124.628241,38.0744885 C123.33564,37.7839603 122.243085,37.3099405 121.319799,36.6524293 C120.411901,35.994918 119.704048,35.1539153 119.180853,34.11413 C118.673045,33.0743448 118.411448,31.6064127 118.411448,30.0773168 C118.411448,28.6093847 118.703821,27.6766362 119.273181,26.6674329 C119.857929,25.6582296 120.642722,24.8325178 121.627561,24.1902975 C122.627788,23.5480772 123.766507,23.0893484 125.074496,22.8141112 C126.382485,22.5388739 127.752026,22.4012553 129.167731,22.4012553 C129.829419,22.4012553 130.521884,22.4471282 131.260513,22.5235829 C131.999142,22.6000377 132.768547,22.7376564 133.599505,22.9364388 L133.599505,21.9578175 C133.599505,21.2697243 133.522564,20.612213 133.353295,20.0005747 C133.184026,19.3736453 132.891652,18.8384618 132.491561,18.364442 C132.076082,17.8904223 131.537499,17.5234393 130.860422,17.263493 C130.183346,17.0035467 129.321612,16.8047642 128.290609,16.8047642 C126.90568,16.8047642 125.643856,16.9729647 124.489748,17.1717472 C123.33564,17.3705297 122.381578,17.5998941 121.658337,17.8598404 L120.935096,12.9514425 C121.689113,12.6914962 122.812445,12.4315499 124.258926,12.1716035 C125.705408,11.9116572 127.259606,11.7740386 128.921521,11.7740386 Z M129.429329,33.4719098 C131.275901,33.4719098 132.645442,33.364873 133.599505,33.1813815 L133.599505,27.0955798 C133.260966,27.003834 132.783935,26.8967973 132.153023,26.8050515 C131.522111,26.7133058 130.829646,26.6521419 130.060241,26.6521419 C129.398553,26.6521419 128.721476,26.6980148 128.0444,26.8050515 C127.367323,26.8967973 126.751799,27.0802888 126.213215,27.3402351 C125.674632,27.6001814 125.228377,27.9671644 124.905227,28.4411842 C124.566688,28.9152039 124.412807,29.1904412 124.412807,29.9091163 C124.412807,31.3158845 124.905227,32.1263053 125.797737,32.6614889 C126.705635,33.2119635 127.905907,33.4719098 129.429329,33.4719098 Z M10.6024025,11.9269482 C12.5874677,11.9269482 14.2647709,12.1716035 15.6189239,12.6609142 C16.9730769,13.1502249 18.0656322,13.8383181 18.8658135,14.7099028 C19.6813829,15.5967784 20.2353546,16.7741823 20.5738928,18.0280409 C20.9278192,19.2818996 21.0970883,20.6580859 21.0970883,22.1718909 L21.0970883,37.5545959 C20.1738022,37.7533783 18.7734849,37.9827427 16.8961364,38.25798 C15.0187879,38.5332173 12.9106179,38.6708359 10.5716263,38.6708359 C9.01742797,38.6708359 7.58633446,38.5179263 6.30912196,38.2273981 C5.01652136,37.9368699 3.9239661,37.4628501 3.00067996,36.8053389 C2.09278192,36.1478276 1.38492921,35.3068249 0.861733731,34.2670396 C0.353926354,33.2272544 0.0923286141,31.7593223 0.0923286141,30.2302264 C0.0923286141,28.7622943 0.384702559,27.8295458 0.954062345,26.8203425 C1.53881023,25.8111392 2.32360345,24.9854274 3.308442,24.3432071 C4.30866866,23.7009868 5.44738823,23.242258 6.75537693,22.9670208 C8.06336563,22.6917835 9.43290674,22.5541649 10.8486122,22.5541649 C11.5103006,22.5541649 12.2027652,22.6000377 12.9413941,22.6764925 C13.6646349,22.7529473 14.4494281,22.890566 15.2803856,23.0893484 L15.2803856,22.1107271 C15.2803856,21.4226339 15.2034451,20.7651226 15.034176,20.1534843 C14.8649069,19.5265549 14.5725329,18.9913714 14.1724423,18.5173516 C13.7569635,18.0433319 13.2183799,17.6763489 12.5413034,17.4164026 C11.8642269,17.1564563 11.0024932,16.9576738 9.97149032,16.9576738 C8.58656111,16.9576738 7.32473672,17.1258743 6.17062904,17.3246568 C5.01652136,17.5234393 4.06245902,17.7528037 3.33921821,18.01275 L2.6159774,13.1043521 C3.36999441,12.8444058 4.49332588,12.5844594 5.93980751,12.3245131 C7.38628913,12.0492759 8.94048746,11.9269482 10.6024025,11.9269482 Z M11.125598,33.6401103 C12.9721703,33.6401103 14.3417114,33.5330736 15.2957737,33.3495821 L15.2957737,27.2637803 C14.9572355,27.1720346 14.4802043,27.0649978 13.8492921,26.9732521 C13.2183799,26.8815063 12.5259153,26.8203425 11.7565102,26.8203425 C11.0948218,26.8203425 10.4177453,26.8662154 9.74066878,26.9732521 C9.06359228,27.0649978 8.44806819,27.2484894 7.90948461,27.5084357 C7.37090102,27.768382 6.92464606,28.135365 6.60149591,28.6093847 C6.26295765,29.0834045 6.10907663,29.3586417 6.10907663,30.0773168 C6.10907663,31.4840851 6.60149591,32.2945059 7.49400584,32.8296895 C8.38651578,33.364873 9.60217586,33.6401103 11.125598,33.6401103 Z M35.5157402,38.5179263 C25.6519666,38.5637992 25.6519666,30.5972094 25.6519666,29.3280598 L25.6365785,1.07036715 L31.6533265,0.122327674 L31.6533265,28.1965288 C31.6533265,28.9152039 31.6533265,33.4719098 35.5157402,33.4872007 L35.5157402,38.5179263 L35.5157402,38.5179263 Z"></path>
                            </g>
                        </g>
                    </g>
                </g>
            </g>
        </g>
    </g>
</svg>