<?xml version="1.0" encoding="UTF-8"?>
<svg width="368px" height="369px" viewBox="0 0 368 369" version="1.1" xmlns="http://www.w3.org/2000/svg" xmlns:xlink="http://www.w3.org/1999/xlink">
    <!-- Generator: Sketch 42 (36781) - http://www.bohemiancoding.com/sketch -->
    <title>JDJDJDJD</title>
    <desc>Created with Sketch.</desc>
    <defs></defs>
    <g id="Page-1XX" stroke="none" stroke-width="1" fill="none" fill-rule="evenodd">
        <g id="JDJDJDJD" fill="#3369E7">
            <g id="Group-5JHD">
                <circle id="BBBCHCH" fill-opacity="0.2" cx="184" cy="184.806452" r="184"></circle>
                <rect id="UUDHSK" fill-opacity="0.2" x="72" y="116" width="224" height="136" rx="4"></rect>
                <circle id="LSOSPM" fill-opacity="0.2" cx="84" cy="128" r="4"></circle>
                <circle id="LJSNSG" fill-opacity="0.2" cx="96" cy="128" r="4"></circle>
                <circle id="VCFDJS" fill-opacity="0.2" cx="108" cy="128" r="4"></circle>
                <rect id="OIUHJS" fill-opacity="0.2" x="152" y="260.806452" width="64" height="8" rx="2"></rect>
                <rect id="HDIDLLS" fill-opacity="0.2" x="80" y="140" width="208" height="24" rx="2"></rect>
                <path d="M286,239 L82,239 L82,236.99703 C82,236.453036 81.5522847,236 81,236 C80.4438648,236 80,236.446386 80,236.99703 L80,243.00297 C80,243.546964 80.4477153,244 81,244 C81.5561352,244 82,243.553614 82,243.00297 L82,241 L286,241 L286,243.00297 C286,243.546964 286.447715,244 287,244 C287.556135,244 288,243.553614 288,243.00297 L288,236.99703 C288,236.453036 287.552285,236 287,236 C286.443865,236 286,236.446386 286,236.99703 L286,239 Z" id="CVBNGS"></path>
                <rect id="HDIDLLS-Copy-3" fill-opacity="0.2" x="80" y="204" width="64" height="24" rx="2"></rect>
                <rect id="HDIDLLS-Copy-4" fill-opacity="0.2" x="224" y="204" width="64" height="24" rx="2"></rect>
                <rect id="HDIDLLS-Copy-5" fill-opacity="0.2" x="152" y="204" width="64" height="24" rx="2"></rect>
                <g id="Group-3UYTH" transform="translate(80.000000, 172.000000)" fill-opacity="0.2">
                    <rect id="HDIDLLS-Copy" x="0" y="0" width="100" height="24" rx="2"></rect>
                    <rect id="HDIDLLS-Copy-2" x="108" y="0" width="100" height="24" rx="2"></rect>
                </g>
            </g>
        </g>
    </g>
</svg>