<?xml version="1.0" encoding="UTF-8"?>
<svg width="368px" height="368px" viewBox="0 0 368 368" version="1.1" xmlns="http://www.w3.org/2000/svg" xmlns:xlink="http://www.w3.org/1999/xlink">
    <!-- Generator: Sketch 42 (36781) - http://www.bohemiancoding.com/sketch -->
    <title>nojs_illustration</title>
    <desc>Created with Sketch.</desc>
    <defs>
        <circle id="YUIOP" cx="184" cy="184" r="48"></circle>
        <mask id="mask-2" maskContentUnits="userSpaceOnUse" maskUnits="objectBoundingBox" x="0" y="0" width="96" height="96" fill="white">
            <use xlink:href="#YUIOP"></use>
        </mask>
    </defs>
    <g id="Page-1" stroke="none" stroke-width="1" fill="none" fill-rule="evenodd">
        <g id="nojs_illustration">
            <g id="Group-4">
                <circle id="Oval-3-Copy-3" fill-opacity="0.2" fill="#3369E7" cx="184" cy="184" r="184"></circle>
                <rect id="Rectangle-Copy" fill-opacity="0.2" fill="#3369E7" x="72" y="116" width="224" height="136" rx="4"></rect>
                <circle id="Oval-3-Copy" fill-opacity="0.2" fill="#3369E7" cx="84" cy="128" r="4"></circle>
                <circle id="Oval-3-Copy-4" fill-opacity="0.2" fill="#3369E7" cx="96" cy="128" r="4"></circle>
                <circle id="Oval-3-Copy-5" fill-opacity="0.2" fill="#3369E7" cx="108" cy="128" r="4"></circle>
                <rect id="Rectangle-2-Copy" fill-opacity="0.2" fill="#3369E7" x="152" y="260" width="64" height="8" rx="2"></rect>
                <path d="M173.330848,197.447455 C171.296012,199.465334 168.515111,200.474259 164.988061,200.474259 C160.579249,200.474259 156.916599,198.693804 154,195.13284 L157.204851,190.045775 C158.391839,191.30059 159.655114,192.275602 160.994715,192.970837 C162.334315,193.666073 163.597591,194.013686 164.784579,194.013686 C166.276792,194.013686 167.438327,193.564333 168.269218,192.665613 C169.10011,191.766894 169.515549,190.486662 169.515549,188.824879 L169.515549,170.613185 L157.255722,170.613185 L157.255722,164.559577 L176.383088,164.559577 L176.383088,188.977491 C176.383088,192.606282 175.365685,195.429575 173.330848,197.447455 Z M201.818414,171.121892 C199.902277,170.511441 198.215084,170.20622 196.756784,170.20622 C195.128915,170.20622 193.840205,170.511441 192.890615,171.121892 C191.941024,171.732342 191.466236,172.580178 191.466236,173.665424 C191.466236,174.648928 191.796892,175.471329 192.458214,176.132651 C193.119536,176.793973 193.950415,177.336588 194.950876,177.760512 C195.951337,178.184436 197.316353,178.650746 199.045964,179.159455 C201.453853,179.871648 203.429311,180.58383 204.972395,181.296022 C206.515479,182.008215 207.829625,183.059531 208.914871,184.450003 C210.000117,185.840474 210.542732,187.671799 210.542732,189.944033 C210.542732,192.114525 209.957725,194.005199 208.787694,195.616111 C207.617663,197.227023 206.006775,198.456385 203.954982,199.304234 C201.903189,200.152082 199.554684,200.576 196.909396,200.576 C194.128453,200.576 191.415379,200.05882 188.770092,199.024445 C186.124805,197.99007 183.818691,196.608098 181.851683,194.878487 L184.700439,189.079232 C186.497878,190.741015 188.515727,192.046682 190.754047,192.996273 C192.992367,193.945863 195.078043,194.420651 197.011138,194.420651 C198.910318,194.420651 200.402509,194.056082 201.487755,193.326932 C202.573001,192.597782 203.115616,191.605814 203.115616,190.350999 C203.115616,189.33358 202.78496,188.494223 202.123638,187.832901 C201.462317,187.171579 200.622959,186.637443 199.605541,186.230476 C198.588123,185.823508 197.197672,185.365677 195.434147,184.856968 C193.026258,184.144775 191.059279,183.44955 189.533152,182.771271 C188.007024,182.092992 186.701357,181.067111 185.616111,179.693597 C184.530865,178.320082 183.98825,176.514192 183.98825,174.275872 C183.98825,172.207122 184.539344,170.401232 185.641547,168.858147 C186.74375,167.315063 188.303767,166.119615 190.321647,165.271766 C192.339526,164.423918 194.671074,164 197.316362,164 C199.622509,164 201.903188,164.339134 204.158465,165.017413 C206.413741,165.695692 208.423112,166.611354 210.186637,167.764428 L207.439622,173.716295 C205.608269,172.597135 203.734552,171.732342 201.818414,171.121892 Z" id="JS" fill-opacity="0.2" fill="#3369E7"></path>
                <rect id="Rectangle-3" fill="#3369E7" transform="translate(184.500000, 182.000000) rotate(-315.000000) translate(-184.500000, -182.000000) " x="138" y="180" width="93" height="4" rx="2"></rect>
                <use id="Oval-2" stroke="#3369E7" mask="url(#mask-2)" stroke-width="8" xlink:href="#YUIOP"></use>
            </g>
        </g>
    </g>
</svg>