<?xml version="1.0" encoding="UTF-8"?>
<svg width="368px" height="368px" viewBox="0 0 368 368" version="1.1" xmlns="http://www.w3.org/2000/svg" xmlns:xlink="http://www.w3.org/1999/xlink">
    <!-- Generator: Sketch 42 (36781) - http://www.bohemiancoding.com/sketch -->
    <title>offline_illustration</title>
    <desc>Created with Sketch.</desc>
    <defs>
        <linearGradient x1="130.032269%" y1="133.046875%" x2="-16.8002717%" y2="0%" id="linearGradient-1">
            <stop stop-color="#1F1A37" offset="0%"></stop>
            <stop stop-color="#3E366A" offset="100%"></stop>
        </linearGradient>
        <linearGradient x1="76.542575%" y1="-15.5777928%" x2="76.5425742%" y2="148.978728%" id="linearGradient-2">
            <stop stop-color="#FFFFFF" stop-opacity="0" offset="0%"></stop>
            <stop stop-color="#FFFFFF" offset="100%"></stop>
        </linearGradient>
        <linearGradient x1="31.2343089%" y1="-9.22874415%" x2="81.1261232%" y2="104.898352%" id="linearGradient-3">
            <stop stop-color="#B84592" offset="0%"></stop>
            <stop stop-color="#FF4F81" offset="100%"></stop>
        </linearGradient>
    </defs>
    <g id="Page-1" stroke="none" stroke-width="1" fill="none" fill-rule="evenodd">
        <g id="offline_illustration">
            <circle id="Oval-3-Copy-3" fill="#F7F7FF" cx="184" cy="184" r="184"></circle>
            <g id="Group-2" transform="translate(72.000000, 89.000000)">
                <ellipse id="Oval-3-Copy-2" fill-opacity="0.1" fill="#182359" cx="112.5" cy="182" rx="87.5" ry="8"></ellipse>
                <g id="Group-3" transform="translate(0.000000, 14.000000)">
                    <rect id="Rectangle" fill="url(#linearGradient-1)" x="0" y="0" width="224" height="136" rx="4"></rect>
                    <polygon id="Rectangle" fill="url(#linearGradient-2)" style="mix-blend-mode: overlay;" opacity="0.38708107" points="120 0 224 0 224 136 71 136"></polygon>
                    <circle id="Oval-3" fill="#FFFFFF" style="mix-blend-mode: overlay;" opacity="0.38708107" cx="12" cy="12" r="4"></circle>
                    <circle id="Oval-3" fill="#FFFFFF" style="mix-blend-mode: overlay;" opacity="0.38708107" cx="26" cy="12" r="4"></circle>
                    <circle id="Oval-3" fill="#FFFFFF" style="mix-blend-mode: overlay;" opacity="0.38708107" cx="40" cy="12" r="4"></circle>
                </g>
                <path d="M109.836751,82.462875 C106.949758,83.0575102 104.451665,84.8704898 102.845192,87.6084532 C102.535072,88.1714719 101.914831,88.4931969 101.29459,88.4127657 C100.829409,88.3323344 100.364229,88.0910407 99.9765783,87.6084532 C99.4338675,86.8845719 99.3563374,85.8389656 99.8215181,85.1150843 C102.690132,80.2892091 107.574529,77.715409 113.001637,78.2784277 C113.278984,78.3176631 113.554282,78.3611516 113.827863,78.4095849 L121.091768,71.0325138 C118.574752,69.6797834 115.843833,68.8244112 113.001637,68.5462461 C105.326156,67.8223648 98.348446,71.4417712 94.3168803,78.358859 C93.7741695,79.324034 92.4561576,79.4848965 91.6033264,78.6001528 C90.9055554,77.8762715 90.8280253,76.6698027 91.293206,75.8654901 C96.0225427,67.902796 104.085674,63.6399396 113.001637,64.5246834 C116.806403,64.8890346 120.478588,66.216178 123.817997,68.2638123 L127.499767,64.5246834 C128.120008,63.8812333 129.20543,63.8008021 129.980731,64.4442521 C130.911092,65.3289959 130.988622,66.6963272 130.213321,67.5006398 L100.674349,97.5014974 C100.286699,97.9840849 99.8215181,98.0645161 99.3563374,98.0645161 C98.8911567,97.9840849 98.4259761,97.7427911 98.0383255,97.3406348 C97.3405545,96.4558911 97.3405545,95.168991 98.0383255,94.4451097 L109.836751,82.462875 L109.836751,82.462875 Z M113,90.9867702 C115.322581,91.2203397 117.258065,93.4781781 117.258065,95.9695861 C117.258065,98.5388506 115.322581,100.407407 113,100.173837 C110.677419,99.9402675 108.741935,97.6824291 108.741935,95.1910211 C108.741935,92.6996132 110.677419,90.7532007 113,90.9867702 Z M123.069614,89.1953283 C123.697071,90.3479149 125.18728,90.6552713 126.050032,89.656363 C126.599057,89.1184892 126.599057,88.1195809 126.206896,87.428029 C124.951983,85.1996951 123.30491,83.2787175 121.344109,81.7419355 L121.265677,81.7419355 L118.677419,84.2007867 L118.677419,84.2776258 C120.402924,85.5070515 121.971566,87.1975117 123.069614,89.1953283 Z M134.706397,80.1480698 C133.361992,77.6234796 131.701257,75.2617663 129.803275,73.2258065 L129.724192,73.2258065 L127.193548,75.7503966 L127.193548,75.831835 C128.933366,77.6234796 130.356853,79.7408778 131.622175,82.0211528 C131.938505,82.67266 132.571166,83.0798519 133.203827,83.1612903 C133.59924,83.1612903 133.994653,83.0798519 134.310984,82.8355368 C135.10181,82.3469064 135.180892,81.1253305 134.706397,80.1480698 Z" id="Combined-Shape" fill="#FFFFFF"></path>
                <g id="Group" transform="translate(180.000000, 0.000000)">
                    <ellipse id="Oval" fill="url(#linearGradient-3)" cx="13.2699085" cy="13.5558923" rx="13.2699085" ry="13.5558923"></ellipse>
                    <path d="M19.5954607,10.3249543 L11.6885204,18.4022995 L6.94435624,13.5558923 C6.60057623,13.2047034 6.60057623,12.5725634 6.94435624,12.2213744 C7.28813625,11.8701855 7.90694028,11.8701855 8.25072029,12.2213744 L11.6541424,15.6981448 L18.2547186,8.95531748 C18.5984986,8.60412856 19.2173027,8.60412856 19.5610827,8.95531748 C19.9736187,9.37674419 19.9736187,9.93864646 19.5954607,10.3249543 Z" id="Shape" fill="#FFFFFF"></path>
                </g>
            </g>
        </g>
    </g>
</svg>