<?xml version="1.0" encoding="UTF-8"?>
<svg width="368px" height="368px" viewBox="0 0 368 368" version="1.1" xmlns="http://www.w3.org/2000/svg" xmlns:xlink="http://www.w3.org/1999/xlink">
    <!-- Generator: Sketch 42 (36781) - http://www.bohemiancoding.com/sketch -->
    <title>offline_illustration</title>
    <desc>Created with Sketch.</desc>
    <defs></defs>
    <g id="Page-1" stroke="none" stroke-width="1" fill="none" fill-rule="evenodd">
        <g id="offline_illustration">
            <g id="Group-2">
                <circle id="Oval-3-Copy-2" fill-opacity="0.2" fill="#3369E7" cx="184" cy="184" r="184"></circle>
                <rect id="Rectangle" fill-opacity="0.2" fill="#3369E7" x="72" y="116" width="224" height="136" rx="4"></rect>
                <path d="M181.836751,184.462875 C178.949758,185.05751 176.451665,186.87049 174.845192,189.608453 C174.535072,190.171472 173.914831,190.493197 173.29459,190.412766 C172.829409,190.332334 172.364229,190.091041 171.976578,189.608453 C171.433868,188.884572 171.356337,187.838966 171.821518,187.115084 C174.690132,182.289209 179.574529,179.715409 185.001637,180.278428 C185.278984,180.317663 185.554282,180.361152 185.827863,180.409585 L193.091768,173.032514 C190.574752,171.679783 187.843833,170.824411 185.001637,170.546246 C177.326156,169.822365 170.348446,173.441771 166.31688,180.358859 C165.774169,181.324034 164.456158,181.484897 163.603326,180.600153 C162.905555,179.876271 162.828025,178.669803 163.293206,177.86549 C168.022543,169.902796 176.085674,165.63994 185.001637,166.524683 C188.806403,166.889035 192.478588,168.216178 195.817997,170.263812 L199.499767,166.524683 C200.120008,165.881233 201.20543,165.800802 201.980731,166.444252 C202.911092,167.328996 202.988622,168.696327 202.213321,169.50064 L172.674349,199.501497 C172.286699,199.984085 171.821518,200.064516 171.356337,200.064516 C170.891157,199.984085 170.425976,199.742791 170.038326,199.340635 C169.340555,198.455891 169.340555,197.168991 170.038326,196.44511 L181.836751,184.462875 L181.836751,184.462875 Z M185,192.98677 C187.322581,193.22034 189.258065,195.478178 189.258065,197.969586 C189.258065,200.538851 187.322581,202.407407 185,202.173837 C182.677419,201.940268 180.741935,199.682429 180.741935,197.191021 C180.741935,194.699613 182.677419,192.753201 185,192.98677 Z M195.069614,191.195328 C195.697071,192.347915 197.18728,192.655271 198.050032,191.656363 C198.599057,191.118489 198.599057,190.119581 198.206896,189.428029 C196.951983,187.199695 195.30491,185.278718 193.344109,183.741935 L193.265677,183.741935 L190.677419,186.200787 L190.677419,186.277626 C192.402924,187.507051 193.971566,189.197512 195.069614,191.195328 Z M206.706397,182.14807 C205.361992,179.62348 203.701257,177.261766 201.803275,175.225806 L201.724192,175.225806 L199.193548,177.750397 L199.193548,177.831835 C200.933366,179.62348 202.356853,181.740878 203.622175,184.021153 C203.938505,184.67266 204.571166,185.079852 205.203827,185.16129 C205.59924,185.16129 205.994653,185.079852 206.310984,184.835537 C207.10181,184.346906 207.180892,183.125331 206.706397,182.14807 Z" id="Combined-Shape" fill-opacity="0.2" fill="#3369E7"></path>
                <circle id="Oval-3" fill-opacity="0.2" fill="#3369E7" cx="84" cy="128" r="4"></circle>
                <circle id="Oval-3" fill-opacity="0.2" fill="#3369E7" cx="96" cy="128" r="4"></circle>
                <circle id="Oval-3" fill-opacity="0.2" fill="#3369E7" cx="108" cy="128" r="4"></circle>
                <g id="Group" transform="translate(252.000000, 102.000000)">
                    <ellipse id="Oval" fill="#3369E7" cx="13.2699085" cy="13.5558923" rx="13.2699085" ry="13.5558923"></ellipse>
                    <path d="M19.5954607,10.3249543 L11.6885204,18.4022995 L6.94435624,13.5558923 C6.60057623,13.2047034 6.60057623,12.5725634 6.94435624,12.2213744 C7.28813625,11.8701855 7.90694028,11.8701855 8.25072029,12.2213744 L11.6541424,15.6981448 L18.2547186,8.95531748 C18.5984986,8.60412856 19.2173027,8.60412856 19.5610827,8.95531748 C19.9736187,9.37674419 19.9736187,9.93864646 19.5954607,10.3249543 Z" id="Shape" fill="#FFFFFF"></path>
                </g>
                <rect id="Rectangle-2" fill-opacity="0.2" fill="#3369E7" x="152" y="260" width="64" height="8" rx="2"></rect>
            </g>
        </g>
    </g>
</svg>