<svg width="71" height="71" viewBox="0 0 71 71" xmlns="http://www.w3.org/2000/svg"><g transform="translate(0 1)" fill="none" fill-rule="evenodd"><circle fill="#FFF" cx="35.5" cy="35.5" r="33.5"/><path d="M35.234 69.896c19.33 0 35-15.67 35-35s-15.67-35-35-35-35 15.67-35 35 15.67 35 35 35zM27.502 48.71s-2.342 1.36 1.67 1.82c4.86.554 7.342.474 12.696-.536 0 0 1.41.88 3.376 1.644-12.005 5.137-27.17-.298-17.742-2.93zm-1.467-6.706s-2.628 1.943 1.386 2.357c5.193.537 9.29.58 16.387-.783 0 0 .98.993 2.52 1.536-14.512 4.24-30.677.333-20.292-3.11zM38.4 30.63c2.96 3.402-.775 6.46-.775 6.46s7.51-3.87 4.062-8.72c-3.222-4.523-5.692-6.77 7.68-14.515 0 0-20.992 5.236-10.966 16.774zm15.88 23.04s1.733 1.427-1.91 2.53c-6.928 2.096-28.84 2.73-34.927.085-2.187-.952 1.915-2.27 3.206-2.548 1.345-.29 2.113-.238 2.113-.238-2.433-1.712-15.727 3.36-6.752 4.815 24.477 3.962 44.617-1.785 38.27-4.646zM28.63 35.055s-11.145 2.645-3.947 3.606c3.04.406 9.097.313 14.744-.16 4.613-.387 9.242-1.214 9.242-1.214s-1.626.697-2.803 1.5c-11.32 2.972-33.183 1.587-26.888-1.453 5.32-2.57 9.65-2.28 9.65-2.28zm19.993 11.16c11.506-5.97 6.185-11.706 2.472-10.934-.908.19-1.316.354-1.316.354s.338-.53.982-.757c7.346-2.58 12.995 7.605-2.37 11.64 0 0 .178-.16.23-.303zm-6.936-44.87s6.37 6.365-6.044 16.152c-9.956 7.854-2.27 12.33-.004 17.448-5.813-5.237-10.076-9.848-7.216-14.138 4.2-6.297 15.833-9.35 13.263-19.463zM29.76 62.398c11.042.704 28.003-.393 28.404-5.612 0 0-.77 1.978-9.126 3.548-9.425 1.772-21.053 1.566-27.947.43 0 0 1.414 1.167 8.67 1.633z" fill="#3694D6"/></g></svg>